<svg enable-background="new 0 0 1366 768" viewBox="0 0 1366 768" xmlns="http://www.w3.org/2000/svg" xmlns:xlink="http://www.w3.org/1999/xlink"><linearGradient id="a" gradientUnits="userSpaceOnUse" x1="993.9111" x2="1160.0393" y1="315.6913" y2="315.6913"><stop offset="0" stop-color="#043c66"/><stop offset="1" stop-color="#004c8f"/></linearGradient><path d="m1003.7 210.3 156.3 160.9-33.9 49.9-132.2-142.3z" fill="url(#a)"/><g fill="#004c8f"><path d="m1160 371.2-109.6 105.8c-19.3 18.6-51.5 4.6-51-22.2l4.3-244.5c-18.9-12.4-46 .4-46.4 24.8l-5.8 324.7c-.5 26.8 31.7 40.8 51 22.2l165.2-159.5c12-11.6 12.3-30.6.8-42.6z"/><path d="m254.3 395.3-65.3-205.6h60.4l22 80.9c6.4 23.2 11.9 45.8 17.1 72h.6c4.9-25 10.7-48.8 16.8-71.1l22.3-81.8h58.6l-67.1 205.6z"/><path d="m424.7 229.7c-17.1 0-27.8-11.6-27.8-25.9 0-15.3 11-26.2 28.1-26.2s27.8 11 28.1 26.2c0 14.3-11 25.9-28.1 25.9zm-27.5 165.6v-150.1h55.2v150.1z"/><path d="m531.2 339.5c1.8 11.9 19.2 18.6 38.7 18.6 14 0 27.5-1.5 40.9-5.8l7 36.6c-18 7-37.5 9.5-56.1 9.5-52.8 0-82.7-29-82.7-76.6 0-34.8 22.6-79.9 77.8-79.9 48.5 0 69.3 35.7 69.3 76.9 0 8.8-1.2 17.1-2.1 20.7zm44.3-37.2c0-8.5-4-24.4-21.4-24.4-16.2 0-22.6 15-23.5 24.4z"/><path d="m690.3 245.2 8.5 55.2c2.4 15 5.2 32 7.3 49.7h.6c2.7-17.7 7-35.1 10.1-49.4l11.9-55.5h43l11.6 53.4c3.4 16.8 7.3 33.9 9.8 51.6h.6c1.8-17.7 4.6-35.1 7.6-52.2l8.8-52.8h53.7l-44.8 150.1h-51.9l-10.4-44.5c-3.1-14-5.2-26.5-8.2-45.8h-.6c-2.1 19.2-4.6 32.3-7.6 45.2l-11.3 45.1h-51.9l-43-150.1z"/></g><path d="m614.2 563.8c-6.9 3.5-20.1 6.9-37 6.9-33.2 0-64.9-21.2-64.9-69.8 0-40.7 26.2-71.6 69.6-71.6 17.5 0 27.7 3.9 31.7 6.1l-3.1 8.1c-6.9-3.5-16.9-5.9-28.5-5.9-37 0-59.6 24-59.6 63.5 0 37.2 21.2 61.2 58 61.2 11.6 0 23-2.4 30.9-6.3z"/><path d="m697.3 545.5c0 7.7.2 15.7 1.4 23.2h-8.9l-1.4-14h-.4c-4.9 7.5-15.7 16.3-31.3 16.3-19.7 0-28.7-13.8-28.7-26.8 0-22.6 19.7-36.2 59.6-35.8v-2.6c0-9.6-1.8-28.9-25-28.7-8.5 0-17.5 2.2-24.6 7.3l-3.1-7.1c9-5.9 19.9-8.3 28.7-8.3 28.3 0 33.8 21.2 33.8 38.4v38.1zm-9.8-29.1c-21.4-.6-49.4 2.6-49.4 26 0 14 9.4 20.3 19.5 20.3 16.3 0 25.6-10 28.9-19.5.8-2 1-4.3 1-5.9z"/><path d="m724.8 555.9c5.3 3.3 13.2 6.7 22 6.7 15.5 0 22.8-8.3 22.8-18.5 0-10.8-6.5-16.5-20.5-22.2-16.1-6.1-24.8-14.9-24.8-26.6 0-14 11.2-26.4 30.1-26.4 9 0 16.7 2.6 21.6 6.1l-3.7 7.9c-3.5-2.4-9.8-5.9-19.5-5.9-12.4 0-18.9 7.9-18.9 16.9 0 10.2 6.9 14.6 20.1 20.1 15.9 6.1 25.2 14 25.2 28.9 0 16.7-13 27.9-33 27.9-9.4 0-18.3-2.6-24.8-6.7z"/><path d="m818.2 449.5v21.6h27.8v7.9h-27.9v63.5c0 12.4 3.9 20.1 14.2 20.1 5.1 0 8.8-.6 11.2-1.4l1.2 7.3c-3.3 1.4-7.7 2.4-13.6 2.4-7.1 0-13-2.2-16.7-6.9-4.5-5.1-6.1-13.4-6.1-23.4v-61.6h-16.5v-7.9h16.5v-17.9z"/></svg>